<svg version="1.1" xmlns="http://www.w3.org/2000/svg" viewBox="0 0 1540.068228585379 1074.4716845315609" width="1540.068228585379" height="1074.4716845315609">
  <!-- svg-source:excalidraw -->
  
  <defs>
    <style>
      @font-face {
        font-family: "Virgil";
        src: url("https://excalidraw.com/Virgil.woff2");
      }
      @font-face {
        font-family: "Cascadia";
        src: url("https://excalidraw.com/Cascadia.woff2");
      }
    </style>
  </defs>
  <rect x="0" y="0" width="1540.068228585379" height="1074.4716845315609" fill="#ffffff"></rect><g stroke-linecap="round" transform="translate(266.62224663628524 56.098239474827096) rotate(0 296.2726169162327 240.41923886253744)"><path d="M0.73 -0.51 C156.76 1.35, 314.03 2.39, 593.09 0.35 M-0.15 -0.12 C137.59 1.02, 275.39 0.56, 592.63 0.31 M591.82 -0.8 C591.73 170.85, 590.91 339.64, 592.06 480.78 M592.95 -0.38 C594.29 127.46, 594.42 254.54, 592.91 480.97 M592.38 480.67 C396.21 481.13, 199 480.64, 0.38 481.58 M592.52 481.01 C360.51 479.07, 127.79 479.14, 0.16 481.16 M0.35 481.11 C0.14 351.73, -0.09 222.05, 0.3 -0.01 M0.2 480.69 C0.85 340.76, 0.35 201.61, 0.32 -0.3" stroke="#000000" stroke-width="1" fill="none"></path></g><g transform="translate(284.74351671006985 72.70282660590374) rotate(0 62.5 12.5)"><text x="0" y="18" font-family="Virgil, Segoe UI Emoji" font-size="20px" fill="#000000" text-anchor="start" style="white-space: pre;" direction="ltr">NUMA node 1</text></g><g stroke-linecap="round" transform="translate(290.3142293294274 130.3945041232646) rotate(0 32.5 30)"><path d="M1.38 0.54 C21.16 -0.64, 46.82 0.74, 63.54 0.66 M-0.64 -0.85 C23.83 1.51, 47.94 0.09, 64.37 0.19 M65.72 0.37 C63.69 18.71, 64.99 35.58, 66.7 61.48 M65.19 0.07 C64.09 13.23, 65.94 27.03, 65.18 59.35 M66.52 58.34 C44.52 61.18, 25.28 61.62, -0.86 58.24 M64.88 60.2 C39.78 60.34, 16.83 58.86, 0.53 59.16 M-1.2 61.14 C0.2 39.8, -0.96 23.32, 1.97 -0.36 M-0.13 60.1 C0.56 44, -0.29 26.49, 0.05 -0.84" stroke="#000000" stroke-width="1" fill="none"></path></g><g stroke-linecap="round" transform="translate(373.46942477756113 132.53855048285664) rotate(0 32.5 30)"><path d="M1.57 -0.86 C14.13 1.84, 32.31 -0.36, 64.76 0.4 M-0.92 0.53 C13.65 -0.27, 28.16 -1.27, 64.4 0.57 M66.64 1.97 C64.33 16.76, 63.92 34.27, 64.74 60.2 M65.26 0.05 C64.69 19.71, 66 40.57, 65.91 59.8 M65.47 59.95 C46.9 59.48, 25.98 61.53, 0.22 61.76 M64.17 59.22 C45.34 60.77, 26.83 61.08, 0.48 60.36 M-1.43 58.44 C-1.21 47.57, 1.24 35.44, 0.23 -0.64 M-0.67 59.33 C-0.04 46.12, -0.24 32.4, 0.38 0.85" stroke="#000000" stroke-width="1" fill="none"></path></g><g transform="translate(295.3142293294274 135.3945041232646) rotate(0 27.5 25)"><text x="27.5" y="18" font-family="Virgil, Segoe UI Emoji" font-size="20px" fill="#000000" text-anchor="middle" style="white-space: pre;" direction="ltr">CPU </text><text x="27.5" y="43" font-family="Virgil, Segoe UI Emoji" font-size="20px" fill="#000000" text-anchor="middle" style="white-space: pre;" direction="ltr">#0</text></g><g transform="translate(378.46942477756113 137.53855048285664) rotate(0 27.5 25)"><text x="27.5" y="18" font-family="Virgil, Segoe UI Emoji" font-size="20px" fill="#000000" text-anchor="middle" style="white-space: pre;" direction="ltr">CPU </text><text x="27.5" y="43" font-family="Virgil, Segoe UI Emoji" font-size="20px" fill="#000000" text-anchor="middle" style="white-space: pre;" direction="ltr">#56</text></g><g stroke-linecap="round" transform="translate(481.63932800293 135.15442403157567) rotate(0 32.5 30)"><path d="M-0.12 1.98 C25.56 -1.39, 47.52 1.27, 63.78 -1.44 M-0.55 -0.53 C19.69 -0.72, 40.43 0.11, 65.48 -0.12 M64.48 -1.33 C66.76 17.42, 65.04 33.28, 65.95 58.75 M65.08 0.04 C66.3 22.39, 65.93 44.37, 64.55 59.11 M64.9 58.89 C46.24 58.79, 33.1 58.23, -1.42 58.72 M64.63 60.33 C44.84 59.91, 26.15 59.8, -0.39 59.51 M-0.65 59.59 C2.14 47.81, 0.27 32.38, 0.22 1.52 M0.07 59.31 C0.06 43.65, -0.34 25.97, 0.95 -0.74" stroke="#000000" stroke-width="1" fill="none"></path></g><g stroke-linecap="round" transform="translate(566.5587785508901 136.72365485297337) rotate(0 32.5 30)"><path d="M1.98 1.5 C23.32 -0.56, 50.65 -1.18, 63.56 0.31 M-0.53 -0.81 C19.71 -0.22, 40.56 0.84, 64.88 -0.17 M63.67 1.81 C65.43 17.6, 64.32 35.97, 63.75 61.52 M65.04 0.94 C65.03 22.16, 64.46 42.74, 64.11 59.58 M63.89 58.03 C44.08 61.66, 24.04 58.55, -1.28 60.01 M65.33 59.36 C41.78 59.95, 17.89 59.37, -0.49 59.18 M-0.41 61.93 C0.63 44.17, -1.72 28.44, 1.52 -0.46 M-0.69 59.99 C-0.02 42.23, -1.07 26.21, -0.74 0.13" stroke="#000000" stroke-width="1" fill="none"></path></g><g transform="translate(486.63932800293 140.15442403157567) rotate(0 27.5 25)"><text x="27.5" y="18" font-family="Virgil, Segoe UI Emoji" font-size="20px" fill="#000000" text-anchor="middle" style="white-space: pre;" direction="ltr">CPU </text><text x="27.5" y="43" font-family="Virgil, Segoe UI Emoji" font-size="20px" fill="#000000" text-anchor="middle" style="white-space: pre;" direction="ltr">#1</text></g><g transform="translate(571.5587785508901 141.72365485297337) rotate(0 27.5 25)"><text x="27.5" y="18" font-family="Virgil, Segoe UI Emoji" font-size="20px" fill="#000000" text-anchor="middle" style="white-space: pre;" direction="ltr">CPU </text><text x="27.5" y="43" font-family="Virgil, Segoe UI Emoji" font-size="20px" fill="#000000" text-anchor="middle" style="white-space: pre;" direction="ltr">#57</text></g><g stroke-linecap="round" transform="translate(672.2041151258684 161.08881293402828) rotate(0 11.224331325954836 8.34491305881079)"><path d="M12.04 0.72 C14.54 0.74, 18.23 0.19, 19.79 1.47 C21.36 2.75, 21.36 6.47, 21.44 8.38 C21.52 10.29, 21.31 11.72, 20.25 12.94 C19.18 14.15, 17.35 15.11, 15.03 15.67 C12.71 16.23, 8.73 16.86, 6.33 16.29 C3.93 15.73, 1.48 14.04, 0.65 12.28 C-0.19 10.52, 0.61 7.38, 1.34 5.73 C2.06 4.08, 2.8 3.39, 5.02 2.38 C7.25 1.36, 12.71 -0.06, 14.69 -0.36 C16.67 -0.67, 16.92 0.35, 16.92 0.54 M7.91 1.04 C10.13 0.58, 14.16 0.39, 16.53 1.22 C18.9 2.05, 21.07 4.39, 22.14 6.03 C23.21 7.66, 23.64 9.59, 22.93 11.03 C22.22 12.48, 20.09 13.62, 17.87 14.71 C15.65 15.79, 12.27 17.74, 9.62 17.53 C6.97 17.31, 3.4 14.85, 1.97 13.41 C0.53 11.97, 0.83 10.46, 1.01 8.88 C1.19 7.29, 1.76 5.27, 3.03 3.91 C4.31 2.56, 7.81 1.13, 8.66 0.72 C9.51 0.31, 8.28 1.46, 8.11 1.46" stroke="#000000" stroke-width="1" fill="none"></path></g><g stroke-linecap="round" transform="translate(707.0745171440975 158.5199788411462) rotate(0 14.139506022135492 11.432139078776117)"><path d="M11.59 0.67 C14.41 0.12, 18.96 0.87, 21.62 2 C24.28 3.14, 26.64 5.37, 27.56 7.5 C28.49 9.63, 28.08 12.63, 27.17 14.78 C26.26 16.93, 24.71 18.96, 22.1 20.39 C19.5 21.83, 14.64 23.53, 11.54 23.39 C8.44 23.26, 5.37 21.52, 3.5 19.59 C1.63 17.66, 0.34 14.42, 0.32 11.82 C0.3 9.22, 1.1 6.1, 3.4 4.01 C5.7 1.91, 12.14 -0.26, 14.12 -0.73 C16.1 -1.21, 15.54 0.7, 15.28 1.16 M12.19 -0.49 C14.88 -1.22, 18.91 -0.6, 21.48 0.81 C24.05 2.23, 26.41 5.62, 27.63 8.02 C28.85 10.42, 29.9 12.86, 28.79 15.22 C27.67 17.58, 23.86 20.82, 20.92 22.19 C17.98 23.57, 13.94 23.91, 11.16 23.48 C8.38 23.04, 6.29 21.72, 4.22 19.58 C2.16 17.44, -1.1 13, -1.26 10.62 C-1.42 8.25, 0.89 6.97, 3.25 5.34 C5.6 3.72, 11.33 1.48, 12.88 0.89 C14.44 0.31, 12.7 1.88, 12.56 1.83" stroke="#000000" stroke-width="1" fill="none"></path></g><g stroke-linecap="round" transform="translate(752.5759548611114 163.86672634548654) rotate(0 9.795769585503535 7.05108642578125)"><path d="M12.97 0.86 C14.83 0.98, 15.86 1.27, 16.94 2.55 C18.01 3.84, 19.33 6.89, 19.41 8.55 C19.49 10.21, 18.8 11.42, 17.41 12.5 C16.03 13.58, 13.33 15.06, 11.12 15.05 C8.91 15.03, 5.98 13.35, 4.17 12.41 C2.36 11.48, 0.85 10.69, 0.26 9.43 C-0.33 8.17, -0.17 6.25, 0.64 4.87 C1.44 3.49, 2.84 1.77, 5.11 1.17 C7.39 0.57, 12.58 1.28, 14.28 1.26 C15.98 1.25, 15.67 1.1, 15.32 1.08 M5.49 1 C7.33 0.16, 10.46 -0.8, 12.61 -0.54 C14.76 -0.28, 17.19 1.29, 18.4 2.56 C19.62 3.84, 20.41 5.33, 19.91 7.09 C19.42 8.84, 17.31 11.89, 15.43 13.08 C13.56 14.28, 10.5 14.15, 8.67 14.27 C6.83 14.4, 6.01 14.86, 4.44 13.84 C2.86 12.82, -0.07 9.74, -0.8 8.16 C-1.52 6.57, -1.21 5.75, 0.08 4.34 C1.36 2.93, 6.04 0.12, 6.91 -0.31 C7.79 -0.74, 5.61 1.46, 5.32 1.77" stroke="#000000" stroke-width="1" fill="none"></path></g><g stroke-linecap="round" transform="translate(665.9638722737634 373.128836737739) rotate(0 32.5 30)"><path d="M0.77 -0.53 C16.14 0.02, 31.16 0.19, 64.66 1.08 M-0.38 -0.2 C21.66 -0.87, 44.01 -0.03, 65.06 -0.26 M63.84 0.18 C63.77 11, 66.03 26.84, 64.3 61.71 M65.89 0.17 C65.1 20.66, 63.87 41.45, 64.2 59.82 M64.21 58.95 C45.03 61.89, 21.89 58.74, -0.99 61.95 M65.41 59.55 C42.6 59.39, 20.39 61.07, 0.06 59.71 M-1.12 61.7 C0.38 36.45, 1.83 14.64, 1.74 1.83 M0.67 59.38 C-0.02 47.29, 0.67 34.82, -0.59 0.76" stroke="#000000" stroke-width="1" fill="none"></path></g><g stroke-linecap="round" transform="translate(755.4319339328346 375.06136237250485) rotate(0 32.5 30)"><path d="M-0.53 1.01 C23.38 0.64, 46.91 -0.6, 66.08 0.62 M-0.2 0.15 C17.27 1.24, 35.92 0.3, 64.74 -0.89 M65.18 -1.05 C63.59 17.37, 66.8 31.61, 66.71 60.91 M65.17 0.24 C64.81 15.56, 64.87 32.29, 64.82 60.17 M63.95 60.61 C45.42 57.81, 20.99 58.75, 1.95 60.81 M64.55 59.73 C43.95 59.91, 25.37 60.33, -0.29 60.83 M1.7 60.55 C-0.75 42.31, 0.4 22.36, 1.83 -1.86 M-0.62 60.23 C-0.67 40.42, -0.7 18.42, 0.76 -0.17" stroke="#000000" stroke-width="1" fill="none"></path></g><g transform="translate(670.9638722737634 378.128836737739) rotate(0 27.5 25)"><text x="27.5" y="18" font-family="Virgil, Segoe UI Emoji" font-size="20px" fill="#000000" text-anchor="middle" style="white-space: pre;" direction="ltr">CPU </text><text x="27.5" y="43" font-family="Virgil, Segoe UI Emoji" font-size="20px" fill="#000000" text-anchor="middle" style="white-space: pre;" direction="ltr">#27</text></g><g transform="translate(760.4319339328346 380.06136237250485) rotate(0 27.5 25)"><text x="27.5" y="18" font-family="Virgil, Segoe UI Emoji" font-size="20px" fill="#000000" text-anchor="middle" style="white-space: pre;" direction="ltr">CPU </text><text x="27.5" y="43" font-family="Virgil, Segoe UI Emoji" font-size="20px" fill="#000000" text-anchor="middle" style="white-space: pre;" direction="ltr">#83</text></g><g stroke-linecap="round" transform="translate(300.82628038194485 388.97714911566914) rotate(0 11.224331325954836 8.34491305881079)"><path d="M16.77 1.06 C18.94 1.63, 20.63 2.62, 21.66 4.24 C22.68 5.86, 23.63 8.77, 22.92 10.76 C22.21 12.75, 19.45 15.04, 17.39 16.17 C15.33 17.3, 12.75 18, 10.56 17.53 C8.36 17.06, 5.9 14.63, 4.22 13.33 C2.54 12.03, 0.72 11.47, 0.46 9.73 C0.2 8, 1.34 4.57, 2.68 2.95 C4.03 1.33, 6.03 0.37, 8.52 0.01 C11.01 -0.36, 16.25 0.36, 17.61 0.74 C18.98 1.12, 16.97 1.97, 16.7 2.28 M7.07 0.66 C9.23 -0.34, 13.2 -0.94, 15.54 -0.42 C17.87 0.09, 20.08 1.96, 21.08 3.76 C22.08 5.57, 22.03 8.49, 21.54 10.4 C21.04 12.3, 20.12 14, 18.12 15.19 C16.11 16.37, 11.8 17.56, 9.52 17.5 C7.23 17.45, 6.22 16.08, 4.42 14.85 C2.62 13.62, -0.93 11.84, -1.27 10.13 C-1.6 8.42, 0.78 6.17, 2.41 4.58 C4.03 2.99, 7.52 1.38, 8.47 0.59 C9.43 -0.2, 8.24 -0.11, 8.15 -0.16" stroke="#000000" stroke-width="1" fill="none"></path></g><g stroke-linecap="round" transform="translate(335.69668240017387 386.4083150227873) rotate(0 14.139506022135492 11.432139078776117)"><path d="M14.88 0.28 C17.71 0.21, 20.76 2.22, 23.01 3.76 C25.27 5.3, 27.72 7.18, 28.41 9.51 C29.1 11.85, 28.65 15.46, 27.15 17.75 C25.65 20.03, 22.62 22.43, 19.42 23.21 C16.21 24, 10.8 23.41, 7.95 22.46 C5.1 21.51, 3.7 19.68, 2.32 17.49 C0.94 15.3, -0.79 11.67, -0.32 9.31 C0.14 6.96, 2.23 4.96, 5.12 3.36 C8.01 1.76, 14.43 0.09, 17.01 -0.29 C19.59 -0.68, 20.45 0.87, 20.58 1.05 M14.19 0.2 C16.7 0.13, 19.88 1.18, 22.09 2.58 C24.3 3.98, 26.64 6.23, 27.44 8.62 C28.23 11.01, 28.19 14.91, 26.86 16.92 C25.53 18.94, 22.22 19.72, 19.45 20.71 C16.69 21.7, 13.16 23.66, 10.29 22.85 C7.42 22.05, 3.83 17.97, 2.24 15.88 C0.65 13.8, 0.19 12.39, 0.73 10.34 C1.28 8.29, 3.28 5.24, 5.51 3.58 C7.74 1.93, 12.83 0.99, 14.12 0.42 C15.4 -0.14, 13.4 0.08, 13.21 0.17" stroke="#000000" stroke-width="1" fill="none"></path></g><g stroke-linecap="round" transform="translate(381.1981201171878 391.75506252712717) rotate(0 9.795769585503535 7.05108642578125)"><path d="M8.67 -0.49 C10.63 -0.78, 14.12 0.27, 15.8 1.33 C17.49 2.39, 18.24 4.31, 18.81 5.85 C19.37 7.38, 19.75 9.46, 19.18 10.54 C18.6 11.62, 17.17 11.66, 15.34 12.34 C13.52 13.01, 10.31 14.86, 8.21 14.6 C6.11 14.34, 4.1 12.13, 2.77 10.79 C1.44 9.45, 0.13 8.01, 0.23 6.55 C0.34 5.09, 1.83 3, 3.41 2.03 C4.99 1.07, 8.28 0.91, 9.71 0.77 C11.14 0.62, 11.99 1.17, 11.97 1.15 M13.72 -0.47 C15.71 -0.15, 17.64 1.61, 18.47 3.18 C19.3 4.75, 19.14 7.32, 18.68 8.95 C18.21 10.58, 17.46 11.95, 15.68 12.95 C13.9 13.94, 9.95 14.99, 7.98 14.91 C6 14.84, 5.37 13.58, 3.83 12.52 C2.28 11.45, -1.05 9.98, -1.3 8.54 C-1.56 7.1, 0.78 5.21, 2.27 3.87 C3.77 2.53, 5.7 1.17, 7.64 0.49 C9.59 -0.19, 12.99 -0.09, 13.94 -0.22 C14.9 -0.36, 13.55 -0.75, 13.39 -0.32" stroke="#000000" stroke-width="1" fill="none"></path></g><g stroke-linecap="round" transform="translate(466.5581597222227 392.3060065375437) rotate(0 11.224331325954836 8.34491305881079)"><path d="M14.94 -0.27 C17.16 0.37, 19.74 3.27, 20.99 5.05 C22.25 6.82, 22.74 8.74, 22.47 10.38 C22.21 12.02, 21.15 14, 19.38 14.89 C17.62 15.78, 14.55 15.59, 11.89 15.73 C9.23 15.86, 5.41 16.77, 3.42 15.69 C1.43 14.62, 0.13 11.09, -0.04 9.29 C-0.22 7.48, 1.28 6.21, 2.38 4.84 C3.47 3.48, 4.27 1.79, 6.53 1.08 C8.79 0.37, 14.3 0.65, 15.95 0.58 C17.6 0.51, 16.68 0.58, 16.44 0.64 M11.33 -1.32 C13.85 -1.39, 18.16 1.84, 20.05 3.06 C21.93 4.29, 22.62 4.52, 22.66 6.04 C22.7 7.56, 21.47 10.52, 20.29 12.18 C19.12 13.85, 18.03 15.53, 15.61 16.01 C13.19 16.5, 8.37 15.75, 5.76 15.1 C3.15 14.46, 1.06 13.71, -0.04 12.16 C-1.14 10.61, -1.64 7.32, -0.84 5.8 C-0.04 4.28, 2.65 4.01, 4.76 3.03 C6.86 2.04, 10.46 0.29, 11.8 -0.11 C13.13 -0.52, 12.85 0.53, 12.77 0.58" stroke="#000000" stroke-width="1" fill="none"></path></g><g stroke-linecap="round" transform="translate(501.4285617404517 389.7371724446614) rotate(0 14.139506022135492 11.432139078776117)"><path d="M12.78 0.07 C15.81 -0.13, 21.03 0.93, 23.66 2.57 C26.28 4.21, 28.02 7.44, 28.55 9.91 C29.08 12.38, 28.5 15.46, 26.83 17.38 C25.17 19.3, 21.23 20.61, 18.56 21.4 C15.89 22.19, 13.62 22.61, 10.81 22.11 C8 21.62, 3.35 20.61, 1.68 18.44 C0.01 16.27, 0.2 11.59, 0.78 9.08 C1.37 6.56, 2.71 4.78, 5.18 3.34 C7.64 1.9, 13.55 1.03, 15.57 0.46 C17.59 -0.12, 17.38 -0.24, 17.29 -0.1 M11.2 1.1 C13.95 0.85, 20.15 1.03, 22.67 2.17 C25.18 3.31, 25.67 5.43, 26.27 7.95 C26.87 10.46, 27.31 15.14, 26.28 17.28 C25.25 19.41, 22.82 20.08, 20.1 20.76 C17.38 21.44, 12.84 21.99, 9.97 21.37 C7.11 20.75, 4.68 18.81, 2.93 17.06 C1.18 15.31, -0.9 13.15, -0.5 10.87 C-0.11 8.58, 3.17 5.02, 5.32 3.36 C7.47 1.69, 11.13 1.46, 12.4 0.85 C13.68 0.24, 13.03 -0.55, 12.97 -0.31" stroke="#000000" stroke-width="1" fill="none"></path></g><g stroke-linecap="round" transform="translate(546.9299994574656 395.08391994900217) rotate(0 9.795769585503535 7.05108642578125)"><path d="M9.42 0.89 C11.46 0.97, 14.14 1.26, 15.95 2.06 C17.76 2.85, 19.76 4.47, 20.29 5.68 C20.82 6.9, 20.36 7.87, 19.14 9.34 C17.91 10.81, 15.03 13.86, 12.94 14.51 C10.86 15.16, 8.39 13.76, 6.64 13.25 C4.88 12.75, 3.65 12.59, 2.42 11.5 C1.19 10.41, -0.94 8.32, -0.76 6.7 C-0.57 5.08, 1.51 2.94, 3.53 1.77 C5.55 0.6, 9.99 0, 11.36 -0.3 C12.74 -0.6, 11.86 -0.18, 11.8 -0.04 M14.72 1.31 C16.76 1.78, 18.1 1.38, 18.83 2.47 C19.56 3.57, 19.4 6.22, 19.08 7.87 C18.77 9.52, 18.71 11.47, 16.91 12.36 C15.12 13.26, 10.81 13.23, 8.3 13.22 C5.8 13.22, 3.45 13.31, 1.88 12.32 C0.31 11.34, -1.09 8.61, -1.11 7.32 C-1.13 6.04, 0.44 5.79, 1.76 4.6 C3.07 3.4, 4.68 0.76, 6.8 0.16 C8.92 -0.44, 13.44 1, 14.48 0.98 C15.51 0.96, 13.02 0, 13.01 0.05" stroke="#000000" stroke-width="1" fill="none"></path></g><g transform="translate(344.4446478949655 10.479078504774861) rotate(0 222.5 12.5)"><text x="0" y="18" font-family="Virgil, Segoe UI Emoji" font-size="20px" fill="#000000" text-anchor="start" style="white-space: pre;" direction="ltr">With Hyperthreading 56 cores per NUMA node</text></g><g stroke-linecap="round" transform="translate(937.19479031033 56.20662434895894) rotate(0 296.27261691623266 238.58672369094143)"><path d="M-0.21 0.2 C158.27 -0.46, 317.88 -0.99, 591.82 0.12 M0.39 -0.36 C127.82 -0.87, 255 -0.84, 592.27 -0.25 M592.93 0.21 C591.56 122.41, 592.2 244.44, 591.97 476.64 M592.96 0.22 C591.58 99.79, 592.03 200, 592.93 477.08 M593.08 476.97 C374.49 476.59, 155.8 477.38, -0.37 477.09 M592.19 477.56 C370.79 474.67, 149.29 474.9, 0.19 477.14 M-0.23 477.87 C-1.04 364.02, -1.02 250.6, 0.31 0.76 M0.08 477.43 C-1.51 349.75, -1.08 222.74, 0.11 0.05" stroke="#000000" stroke-width="1" fill="none"></path></g><g transform="translate(955.0456068250868 72.81121148003558) rotate(0 62.5 12.5)"><text x="0" y="18" font-family="Virgil, Segoe UI Emoji" font-size="20px" fill="#000000" text-anchor="start" style="white-space: pre;" direction="ltr">NUMA node 1</text></g><g stroke-linecap="round" transform="translate(960.8867730034721 130.50288899739644) rotate(0 32.5 30)"><path d="M-1.97 0.09 C20.26 -1.41, 39.88 0.15, 63.3 0.06 M0.89 0.57 C22.68 1.23, 44.35 -0.04, 64.57 -0.08 M63.15 -0.13 C64.87 19.35, 63.96 39.69, 63.19 59.29 M64.5 -0.64 C66.09 17.72, 66.45 35.83, 65.68 60.98 M65.28 59.4 C45.43 61.22, 26.98 59.62, 1.48 60.5 M64.81 59.2 C51.74 60.42, 38.49 60.54, -0.63 60.82 M1.52 60.3 C1.71 41.41, 0.87 24.6, -0.67 1.33 M-0.28 59.68 C0.59 45.96, 0.14 31.5, 0.76 1" stroke="#000000" stroke-width="1" fill="none"></path></g><g transform="translate(965.8867730034721 135.50288899739644) rotate(0 27.5 25)"><text x="27.5" y="18" font-family="Virgil, Segoe UI Emoji" font-size="20px" fill="#000000" text-anchor="middle" style="white-space: pre;" direction="ltr">CPU </text><text x="27.5" y="43" font-family="Virgil, Segoe UI Emoji" font-size="20px" fill="#000000" text-anchor="middle" style="white-space: pre;" direction="ltr">#0</text></g><g stroke-linecap="round" transform="translate(1152.2118716769746 135.26280890570752) rotate(0 32.5 30)"><path d="M-1.82 0.31 C18.1 0.47, 40.53 2.36, 63.21 1.77 M-0.68 -0.62 C22.76 -0.51, 46.8 0.01, 65.24 -0.93 M63.69 -1.22 C63.08 16.91, 64.89 37.15, 65.98 59 M65.88 -0.22 C65.99 15.14, 65.17 29, 64.74 60.14 M64.08 59.78 C48.94 60.95, 28.06 58.68, 1.95 59.62 M65.49 59.91 C50.07 60.67, 36.49 59.59, 0.79 60.76 M0.71 61.74 C-1.13 42.44, -1.7 22.57, 1.18 -0.57 M0.24 60.12 C0.34 44.91, 0.14 27.46, -0.6 -0.42" stroke="#000000" stroke-width="1" fill="none"></path></g><g transform="translate(1157.2118716769746 140.26280890570752) rotate(0 27.5 25)"><text x="27.5" y="18" font-family="Virgil, Segoe UI Emoji" font-size="20px" fill="#000000" text-anchor="middle" style="white-space: pre;" direction="ltr">CPU </text><text x="27.5" y="43" font-family="Virgil, Segoe UI Emoji" font-size="20px" fill="#000000" text-anchor="middle" style="white-space: pre;" direction="ltr">#1</text></g><g stroke-linecap="round" transform="translate(1342.776658799913 161.19719780816013) rotate(0 11.224331325954836 8.34491305881079)"><path d="M17.06 1.14 C19.4 1.58, 21.58 2.98, 22.28 4.53 C22.99 6.09, 22.15 8.6, 21.29 10.49 C20.42 12.37, 18.96 14.77, 17.09 15.83 C15.23 16.89, 12.63 17.18, 10.1 16.85 C7.58 16.52, 3.68 15.33, 1.96 13.87 C0.24 12.41, -0.15 9.97, -0.19 8.09 C-0.23 6.21, 0.36 3.98, 1.72 2.6 C3.09 1.22, 5.22 -0.21, 7.98 -0.17 C10.74 -0.14, 16.25 2.35, 18.27 2.8 C20.3 3.26, 20.34 2.53, 20.12 2.57 M10.56 1.56 C12.54 1.43, 15.03 1.5, 16.85 2.23 C18.67 2.95, 20.74 4.49, 21.47 5.89 C22.2 7.29, 21.86 9.11, 21.23 10.62 C20.59 12.14, 19.71 13.81, 17.65 14.98 C15.58 16.15, 11.32 18.11, 8.85 17.64 C6.38 17.17, 4.53 13.51, 2.83 12.17 C1.13 10.83, -1.28 11.36, -1.33 9.61 C-1.38 7.85, 0.64 3.27, 2.51 1.63 C4.39 -0.01, 8.61 0.02, 9.9 -0.23 C11.2 -0.48, 10.49 -0.28, 10.3 0.12" stroke="#000000" stroke-width="1" fill="none"></path></g><g stroke-linecap="round" transform="translate(1377.647060818142 158.62836371527783) rotate(0 14.139506022135492 11.432139078776117)"><path d="M8.2 1.77 C10.45 0.44, 14.14 -0.74, 16.98 -0.26 C19.81 0.23, 23.26 2.53, 25.2 4.7 C27.15 6.86, 28.77 10.45, 28.65 12.75 C28.53 15.05, 26.68 16.86, 24.48 18.51 C22.28 20.15, 18.6 22.33, 15.45 22.61 C12.31 22.9, 8.19 21.71, 5.6 20.21 C3.01 18.71, 0.69 15.85, -0.09 13.6 C-0.87 11.35, -1.25 8.87, 0.91 6.71 C3.07 4.55, 10.46 1.8, 12.88 0.63 C15.31 -0.54, 15.51 -0.37, 15.48 -0.31 M21.62 0.87 C24.53 1.49, 26.92 4.06, 27.98 6.24 C29.04 8.43, 29.09 11.37, 28 13.97 C26.91 16.58, 24.09 20.41, 21.45 21.86 C18.81 23.31, 14.88 22.99, 12.17 22.66 C9.47 22.32, 7.47 21.8, 5.22 19.86 C2.97 17.93, -1.14 13.61, -1.33 11.06 C-1.53 8.51, 2.27 6.28, 4.04 4.56 C5.82 2.84, 6.69 1.2, 9.32 0.75 C11.95 0.29, 18.07 1.88, 19.83 1.82 C21.59 1.75, 19.73 0.28, 19.89 0.35" stroke="#000000" stroke-width="1" fill="none"></path></g><g stroke-linecap="round" transform="translate(1423.1484985351562 163.9751112196186) rotate(0 9.795769585503535 7.05108642578125)"><path d="M14.65 0 C16.3 0.43, 17.33 2.12, 18.08 3.68 C18.84 5.23, 19.54 7.76, 19.16 9.33 C18.78 10.9, 17.67 12.32, 15.8 13.1 C13.93 13.87, 10.15 14.28, 7.95 14.01 C5.76 13.73, 4.05 12.62, 2.62 11.45 C1.2 10.28, -0.33 8.48, -0.62 7.01 C-0.91 5.54, -0.42 3.58, 0.91 2.61 C2.23 1.64, 4.99 1.56, 7.33 1.18 C9.67 0.8, 13.8 0.26, 14.94 0.34 C16.07 0.42, 14.35 1.33, 14.14 1.66 M8.5 1.05 C10.24 0.59, 13.13 0.85, 14.84 1.4 C16.55 1.94, 17.92 3.01, 18.75 4.31 C19.57 5.61, 20.6 7.5, 19.81 9.2 C19.01 10.89, 15.97 13.93, 13.97 14.48 C11.98 15.04, 10.08 12.82, 7.85 12.52 C5.61 12.22, 1.92 13.87, 0.57 12.68 C-0.78 11.5, -0.68 7.2, -0.26 5.4 C0.15 3.59, 1.46 2.77, 3.08 1.85 C4.7 0.94, 8.67 -0.03, 9.45 -0.1 C10.24 -0.17, 7.88 1.33, 7.8 1.41" stroke="#000000" stroke-width="1" fill="none"></path></g><g stroke-linecap="round" transform="translate(1336.536415947808 373.2372216118706) rotate(0 32.5 30)"><path d="M1.77 1.14 C22.84 1.89, 43.67 -0.65, 64.13 -0.17 M-0.93 -0.06 C21.96 -0.71, 43.67 -0.77, 64.1 -0.36 M64 -1.28 C66.61 17.42, 67.33 35.61, 66.36 61.96 M65.14 -0.3 C64.89 17.82, 64.94 34.14, 65.74 60.25 M64.62 58.4 C51.99 60.2, 38.97 60.44, -1.25 61.63 M65.76 60.15 C45.66 60.5, 25.12 61.38, -0.33 60.66 M-0.57 59.36 C1.29 46.24, 0.38 31.62, 1.53 2 M-0.42 59.16 C0.4 38.01, 0.62 17.08, -0.21 0.05" stroke="#000000" stroke-width="1" fill="none"></path></g><g transform="translate(1341.536415947808 378.2372216118706) rotate(0 27.5 25)"><text x="27.5" y="18" font-family="Virgil, Segoe UI Emoji" font-size="20px" fill="#000000" text-anchor="middle" style="white-space: pre;" direction="ltr">CPU </text><text x="27.5" y="43" font-family="Virgil, Segoe UI Emoji" font-size="20px" fill="#000000" text-anchor="middle" style="white-space: pre;" direction="ltr">#27</text></g><g stroke-linecap="round" transform="translate(971.3988240559896 389.0855339898012) rotate(0 11.224331325954836 8.34491305881079)"><path d="M8.23 0.83 C10.48 0.07, 13.59 -0.87, 15.73 -0.3 C17.88 0.28, 20.12 2.64, 21.1 4.27 C22.09 5.9, 22.24 7.85, 21.64 9.48 C21.03 11.11, 19.34 12.85, 17.47 14.05 C15.6 15.25, 12.55 16.53, 10.41 16.69 C8.27 16.85, 6.42 16.31, 4.61 15 C2.81 13.69, -0.01 10.72, -0.4 8.82 C-0.79 6.91, 0.6 5.05, 2.26 3.58 C3.92 2.11, 8.22 0.39, 9.56 0 C10.89 -0.39, 10.4 0.95, 10.27 1.24 M9.01 1.11 C11.11 0.84, 14.24 0.3, 16.58 1.15 C18.92 2, 22.44 4.71, 23.04 6.22 C23.65 7.73, 21.07 8.68, 20.2 10.22 C19.34 11.76, 19.96 14.36, 17.85 15.47 C15.75 16.57, 10.23 17.08, 7.58 16.86 C4.94 16.64, 3.27 15.79, 1.99 14.15 C0.7 12.51, -0.5 8.92, -0.13 7.03 C0.23 5.15, 2.6 3.8, 4.18 2.84 C5.76 1.88, 8.25 1.65, 9.37 1.26 C10.5 0.86, 10.66 0.52, 10.94 0.46" stroke="#000000" stroke-width="1" fill="none"></path></g><g stroke-linecap="round" transform="translate(1006.2692260742186 386.51669989691936) rotate(0 14.139506022135492 11.432139078776117)"><path d="M11.53 0.51 C14.17 -0.21, 17.18 0.23, 19.76 1.24 C22.34 2.24, 25.81 4.35, 27.01 6.52 C28.21 8.69, 28 11.91, 26.97 14.27 C25.93 16.64, 23.27 19.15, 20.82 20.73 C18.37 22.3, 15.05 24.06, 12.28 23.72 C9.51 23.37, 6.34 20.52, 4.19 18.64 C2.04 16.76, -0.37 14.65, -0.63 12.43 C-0.89 10.22, 0.57 7.27, 2.63 5.34 C4.69 3.4, 9.87 1.69, 11.73 0.82 C13.6 -0.05, 13.63 0.1, 13.82 0.13 M16.18 -0.66 C19.11 -0.33, 21.74 2.74, 23.81 4.33 C25.88 5.92, 28.46 6.37, 28.58 8.86 C28.7 11.36, 26.33 17.23, 24.52 19.29 C22.72 21.35, 20.37 20.85, 17.74 21.22 C15.11 21.6, 11.34 22.37, 8.74 21.55 C6.15 20.72, 3.7 18.24, 2.16 16.29 C0.61 14.35, -1.15 12.3, -0.52 9.88 C0.12 7.46, 3.18 3.23, 5.98 1.78 C8.79 0.33, 14.77 1.23, 16.33 1.17 C17.89 1.11, 15.56 1.33, 15.34 1.42" stroke="#000000" stroke-width="1" fill="none"></path></g><g stroke-linecap="round" transform="translate(1051.7706637912324 391.86344740125924) rotate(0 9.795769585503535 7.05108642578125)"><path d="M9.63 -0.92 C11.54 -1.18, 14.18 0.3, 15.71 1.27 C17.24 2.23, 18.45 3.53, 18.81 4.88 C19.17 6.24, 18.8 7.97, 17.87 9.42 C16.93 10.86, 14.85 12.77, 13.17 13.57 C11.49 14.38, 9.81 14.83, 7.78 14.26 C5.76 13.7, 2.22 11.6, 1.02 10.19 C-0.17 8.78, 0.1 7.24, 0.6 5.82 C1.11 4.39, 2.37 2.43, 4.07 1.62 C5.77 0.82, 9.71 1.11, 10.81 0.98 C11.92 0.86, 10.87 0.88, 10.71 0.85 M7.64 -0.08 C9.91 -0.5, 14.33 0.81, 16.01 1.41 C17.69 2, 16.97 2.15, 17.69 3.47 C18.42 4.79, 21.11 7.65, 20.38 9.34 C19.64 11.03, 15.43 12.71, 13.29 13.61 C11.15 14.5, 9.42 15.21, 7.54 14.69 C5.65 14.18, 3.05 11.79, 2 10.51 C0.95 9.23, 1.22 8.18, 1.23 7.02 C1.23 5.87, 0.67 4.7, 2.05 3.58 C3.42 2.46, 8.22 0.86, 9.47 0.3 C10.72 -0.26, 9.6 -0.09, 9.52 0.2" stroke="#000000" stroke-width="1" fill="none"></path></g><g stroke-linecap="round" transform="translate(1137.1307033962676 392.4143914116753) rotate(0 11.224331325954836 8.34491305881079)"><path d="M12.58 0.11 C14.74 0.22, 18.3 1.31, 19.84 2.62 C21.37 3.94, 21.98 6.17, 21.79 7.99 C21.6 9.81, 20.19 11.95, 18.7 13.54 C17.21 15.14, 14.99 17.32, 12.84 17.56 C10.7 17.79, 7.97 15.95, 5.81 14.94 C3.66 13.93, 0.81 12.95, -0.07 11.48 C-0.96 10.01, -0.46 7.77, 0.5 6.13 C1.46 4.5, 3.16 2.66, 5.69 1.68 C8.22 0.7, 13.89 0.44, 15.68 0.26 C17.47 0.09, 16.63 0.53, 16.43 0.63 M8.23 1.38 C10.3 0.73, 14.44 -1.4, 16.41 -0.58 C18.39 0.25, 19.21 4.67, 20.1 6.33 C20.99 7.99, 22.12 7.94, 21.76 9.36 C21.4 10.79, 19.77 13.7, 17.96 14.89 C16.15 16.08, 13.51 16.42, 10.9 16.51 C8.29 16.6, 4.08 16.74, 2.29 15.43 C0.51 14.11, 0.02 10.41, 0.18 8.61 C0.34 6.82, 1.86 5.85, 3.26 4.65 C4.67 3.45, 7.76 2.05, 8.62 1.43 C9.48 0.82, 8.21 1.11, 8.44 0.96" stroke="#000000" stroke-width="1" fill="none"></path></g><g stroke-linecap="round" transform="translate(1172.0011054144966 389.84555731879345) rotate(0 14.139506022135492 11.432139078776117)"><path d="M17.14 0.07 C19.86 0.48, 23.06 2, 24.81 3.82 C26.56 5.65, 27.75 8.48, 27.65 11.03 C27.55 13.59, 25.99 17.13, 24.2 19.16 C22.42 21.2, 19.96 23.05, 16.93 23.26 C13.9 23.47, 8.66 21.88, 6.04 20.43 C3.41 18.98, 1.85 16.83, 1.17 14.56 C0.49 12.3, 0.77 8.88, 1.96 6.83 C3.15 4.78, 5.39 3.15, 8.3 2.27 C11.21 1.39, 17.25 1.57, 19.43 1.55 C21.61 1.53, 21.49 2.17, 21.37 2.15 M20.07 1.06 C22.72 1.52, 23.41 2.36, 24.99 4.37 C26.57 6.38, 30.02 10.42, 29.53 13.12 C29.04 15.81, 24.66 18.8, 22.05 20.54 C19.43 22.29, 16.69 23.81, 13.84 23.6 C10.98 23.38, 6.99 20.93, 4.93 19.26 C2.86 17.59, 2.01 15.63, 1.44 13.58 C0.87 11.52, -0.01 9.03, 1.48 6.92 C2.98 4.81, 7.32 1.96, 10.42 0.92 C13.53 -0.12, 18.62 0.45, 20.12 0.67 C21.61 0.88, 19.75 1.85, 19.39 2.2" stroke="#000000" stroke-width="1" fill="none"></path></g><g stroke-linecap="round" transform="translate(1217.5025431315103 395.19230482313424) rotate(0 9.795769585503535 7.05108642578125)"><path d="M10.78 -0.5 C12.82 -0.51, 14.98 0.49, 16.3 1.62 C17.61 2.76, 18.45 4.55, 18.67 6.32 C18.9 8.09, 18.66 11.06, 17.63 12.24 C16.6 13.42, 14.66 13.15, 12.5 13.42 C10.35 13.69, 6.73 14.31, 4.72 13.86 C2.72 13.4, 1.24 12.06, 0.48 10.69 C-0.27 9.33, -0.62 7.3, 0.2 5.68 C1.03 4.06, 3.18 1.92, 5.43 1 C7.68 0.07, 12.11 0.16, 13.71 0.14 C15.3 0.12, 15.23 0.6, 14.98 0.87 M7.94 -1.2 C9.66 -1.56, 11.12 1.51, 12.89 2.22 C14.65 2.93, 17.41 1.99, 18.52 3.08 C19.63 4.17, 19.98 7.15, 19.54 8.77 C19.1 10.39, 17.86 11.73, 15.89 12.81 C13.91 13.9, 9.87 15.5, 7.69 15.27 C5.51 15.05, 3.88 12.59, 2.79 11.48 C1.71 10.36, 1.3 9.83, 1.2 8.58 C1.1 7.33, 1.12 5.3, 2.18 3.99 C3.24 2.68, 6.43 1.41, 7.55 0.72 C8.67 0.02, 8.71 -0.05, 8.91 -0.18" stroke="#000000" stroke-width="1" fill="none"></path></g><g transform="translate(1023.3472696940099 10) rotate(0 241.5 12.5)"><text x="0" y="18" font-family="Virgil, Segoe UI Emoji" font-size="20px" fill="#000000" text-anchor="start" style="white-space: pre;" direction="ltr">Without Hyperthreading 28 cores per NUMA node</text></g><g stroke-linecap="round" transform="translate(271.05691334557935 573.2044784303698) rotate(0 296.2726169162327 245.63360305059553)"><path d="M-0.49 0.52 C136.84 0.96, 274.83 1.59, 592.31 -0.33 M0.01 -0.26 C145.65 1.92, 291.88 2.2, 592.22 -0.2 M592.11 -0.1 C592.21 194.37, 592.25 388.24, 592.57 491.73 M592.23 -0.18 C592.19 141.96, 592.41 283.94, 592.71 491.15 M592.15 491.52 C421.99 493.12, 251.25 493.82, 0.4 491.28 M592.63 491.27 C390.57 492.31, 188.81 492.16, 0.36 491.6 M-0.39 491.32 C2.13 380.25, 1.63 269.48, 0.57 -0.76 M0.36 491.16 C-0.98 301.87, -1.26 111.9, -0.07 0.15" stroke="#000000" stroke-width="1" fill="none"></path></g><g transform="translate(289.17818341936396 589.809065561446) rotate(0 66.5 12.5)"><text x="0" y="18" font-family="Virgil, Segoe UI Emoji" font-size="20px" fill="#000000" text-anchor="start" style="white-space: pre;" direction="ltr">NUMA node 0</text></g><g stroke-linecap="round" transform="translate(294.7488960387215 647.5007430788073) rotate(0 32.5 30)"><path d="M-1.71 -0.35 C15.94 0.79, 32.39 -1.26, 63.93 -0.14 M-0.93 -0.53 C13.26 0.6, 26.49 -0.06, 65.95 -0.21 M65.2 1.05 C65 13.84, 64.76 27.01, 64.78 59.79 M64.66 -0.22 C64.75 21.11, 64.94 42.72, 64.88 59 M65.55 58.85 C39.81 60.81, 14.32 60.24, 0.81 60.64 M64.55 60.84 C43.22 60.46, 23.01 60.83, -0.74 59.1 M0.72 60.04 C-0.2 42.91, 1.66 22.65, 1.72 1.14 M0.44 60.61 C-0.76 44.3, -0.69 29.26, -0.13 0.18" stroke="#000000" stroke-width="1" fill="none"></path></g><g stroke-linecap="round" transform="translate(378.04148840525795 649.6447894383991) rotate(0 32.5 30)"><path d="M-0.35 -0.54 C16.74 -0.03, 30.2 -0.52, 64.86 -1.8 M-0.53 -0.39 C19.89 -0.2, 38.96 1.55, 64.79 -0.84 M66.05 0.32 C65.82 14.94, 66.04 29.52, 64.79 61.17 M64.78 0.21 C64.35 13.78, 64.45 26.63, 64 60.98 M63.85 60.65 C49.33 61.18, 32.49 60.99, 0.64 60.6 M65.84 59.67 C44.59 60.62, 24.11 58.97, -0.9 59.96 M0.04 59.51 C0.64 46.2, -1.86 31.36, 1.14 -0.82 M0.61 59.75 C0.01 36.65, 0.51 13.52, 0.18 -0.17" stroke="#000000" stroke-width="1" fill="none"></path></g><g transform="translate(299.7488960387215 652.5007430788073) rotate(0 27.5 25)"><text x="27.5" y="18" font-family="Virgil, Segoe UI Emoji" font-size="20px" fill="#000000" text-anchor="middle" style="white-space: pre;" direction="ltr">CPU </text><text x="27.5" y="43" font-family="Virgil, Segoe UI Emoji" font-size="20px" fill="#000000" text-anchor="middle" style="white-space: pre;" direction="ltr">#28</text></g><g transform="translate(383.04148840525795 654.6447894383991) rotate(0 27.5 25)"><text x="27.5" y="18" font-family="Virgil, Segoe UI Emoji" font-size="20px" fill="#000000" text-anchor="middle" style="white-space: pre;" direction="ltr">CPU </text><text x="27.5" y="43" font-family="Virgil, Segoe UI Emoji" font-size="20px" fill="#000000" text-anchor="middle" style="white-space: pre;" direction="ltr">#84</text></g><g stroke-linecap="round" transform="translate(486.0739947122241 652.1269281780901) rotate(0 32.5 30)"><path d="M-0.58 -0.84 C17.29 -0.54, 34.93 -0.33, 63.69 -1.85 M-0.8 -0.49 C16.99 -0.32, 31.24 -0.63, 64.88 0.1 M65.07 1.11 C64.88 20.92, 66.26 40.73, 64.13 59.33 M65.41 -0.29 C65.01 15.7, 66.1 32.91, 65.32 60.28 M66 60.03 C50.04 60.83, 34.05 60.61, 0.02 59.11 M65.9 60.83 C39.33 59.4, 15.09 59.83, 0.06 60.36 M1.38 58.18 C1.87 43.01, -0.67 25.46, -0.51 0.88 M-0.17 60.36 C0.02 38.5, -0.02 16.09, 0.03 0.28" stroke="#000000" stroke-width="1" fill="none"></path></g><g stroke-linecap="round" transform="translate(570.5661313495939 653.8298938085159) rotate(0 32.5 30)"><path d="M-0.84 -1.07 C17.6 -1.61, 35.55 -1.12, 63.15 -1.06 M-0.49 0.95 C16.77 -0.32, 33.43 0.4, 65.1 0.52 M66.11 -0.22 C65.05 20.12, 63.73 37.03, 64.33 59.57 M64.71 -0.12 C63.77 20.25, 64.27 38.86, 65.28 59.43 M65.03 60.81 C44.01 60.92, 22.18 60.35, -0.89 61.67 M65.83 59.26 C46.76 60.55, 29.85 60.65, 0.36 60.02 M-1.82 61.72 C0.94 42.64, 1.52 26.4, 0.88 1.23 M0.36 59.87 C0.27 43.31, -0.45 26.98, 0.28 -0.27" stroke="#000000" stroke-width="1" fill="none"></path></g><g transform="translate(491.0739947122241 657.1269281780901) rotate(0 27.5 25)"><text x="27.5" y="18" font-family="Virgil, Segoe UI Emoji" font-size="20px" fill="#000000" text-anchor="middle" style="white-space: pre;" direction="ltr">CPU </text><text x="27.5" y="43" font-family="Virgil, Segoe UI Emoji" font-size="20px" fill="#000000" text-anchor="middle" style="white-space: pre;" direction="ltr">#29</text></g><g transform="translate(575.5661313495939 658.8298938085159) rotate(0 27.5 25)"><text x="27.5" y="18" font-family="Virgil, Segoe UI Emoji" font-size="20px" fill="#000000" text-anchor="middle" style="white-space: pre;" direction="ltr">CPU </text><text x="27.5" y="43" font-family="Virgil, Segoe UI Emoji" font-size="20px" fill="#000000" text-anchor="middle" style="white-space: pre;" direction="ltr">#85</text></g><g stroke-linecap="round" transform="translate(676.6387818351625 678.195051889571) rotate(0 11.224331325954836 8.34491305881079)"><path d="M10.88 -0.39 C13.31 -0.44, 16.93 -0.15, 18.76 1.24 C20.58 2.64, 21.51 6.22, 21.82 7.98 C22.14 9.74, 21.88 10.44, 20.64 11.8 C19.4 13.15, 16.58 15.3, 14.36 16.11 C12.14 16.92, 9.44 17.2, 7.31 16.66 C5.17 16.11, 2.75 14.4, 1.57 12.84 C0.39 11.28, -0.17 9.16, 0.24 7.31 C0.65 5.46, 2 3.1, 4.05 1.75 C6.09 0.41, 11.18 -0.44, 12.5 -0.76 C13.82 -1.07, 12.11 -0.43, 11.96 -0.12 M8.86 -1.34 C11.21 -1.82, 15.87 -0.89, 18.09 0.28 C20.31 1.46, 21.68 3.86, 22.16 5.74 C22.65 7.61, 21.77 9.77, 20.99 11.52 C20.22 13.27, 19.41 15.29, 17.5 16.23 C15.59 17.18, 11.91 17.52, 9.54 17.2 C7.17 16.88, 4.8 15.74, 3.26 14.3 C1.72 12.85, 0.56 10.19, 0.32 8.54 C0.07 6.89, 0.43 5.66, 1.8 4.37 C3.17 3.09, 7.1 1.31, 8.54 0.84 C9.98 0.37, 10.5 1.76, 10.44 1.56" stroke="#000000" stroke-width="1" fill="none"></path></g><g stroke-linecap="round" transform="translate(711.5091838533916 675.6262177966887) rotate(0 14.139506022135492 11.432139078776117)"><path d="M9.2 0.78 C11.89 -0.1, 15.41 -0.54, 18.46 0.29 C21.5 1.11, 26.03 3.58, 27.48 5.72 C28.93 7.87, 27.93 10.69, 27.17 13.14 C26.4 15.59, 25.01 18.8, 22.87 20.45 C20.74 22.09, 17.29 23.08, 14.36 23.02 C11.42 22.96, 7.54 21.72, 5.27 20.06 C2.99 18.4, 1.27 15.39, 0.72 13.06 C0.17 10.74, 0.38 8.29, 1.94 6.09 C3.51 3.89, 8.45 0.87, 10.1 -0.13 C11.76 -1.12, 11.67 -0.07, 11.89 0.12 M15.5 1.7 C18.3 2.13, 22.28 3.28, 24.48 4.81 C26.68 6.35, 28.57 8.45, 28.69 10.9 C28.81 13.34, 27.15 17.5, 25.2 19.48 C23.24 21.46, 19.93 22.41, 16.95 22.77 C13.97 23.13, 9.96 22.88, 7.33 21.64 C4.7 20.4, 2.22 17.86, 1.17 15.35 C0.12 12.83, -0.24 8.96, 1.01 6.55 C2.26 4.14, 5.9 1.7, 8.68 0.87 C11.45 0.05, 16.09 1.85, 17.67 1.59 C19.26 1.34, 18.56 -0.6, 18.17 -0.65" stroke="#000000" stroke-width="1" fill="none"></path></g><g stroke-linecap="round" transform="translate(757.0106215704055 680.972965301029) rotate(0 9.795769585503535 7.05108642578125)"><path d="M5.59 -0.06 C7.32 -0.56, 9.61 0.8, 11.59 1.14 C13.56 1.49, 16.21 0.97, 17.46 2.01 C18.7 3.04, 19.13 5.62, 19.05 7.35 C18.98 9.09, 18.34 11.23, 17.01 12.42 C15.68 13.61, 13.17 14.32, 11.07 14.5 C8.98 14.68, 6.23 14.42, 4.43 13.49 C2.64 12.57, 0.8 10.62, 0.3 8.95 C-0.21 7.28, 0.51 4.93, 1.39 3.47 C2.28 2.02, 4.76 0.66, 5.62 0.2 C6.48 -0.26, 6.49 0.47, 6.56 0.7 M9.86 -0.67 C11.93 -0.65, 14.04 0.47, 15.43 1.47 C16.83 2.48, 17.59 3.85, 18.24 5.34 C18.89 6.83, 19.97 9, 19.34 10.42 C18.71 11.85, 16.3 13.21, 14.45 13.87 C12.6 14.54, 10.28 14.81, 8.27 14.4 C6.26 13.99, 3.9 12.48, 2.41 11.43 C0.92 10.37, -0.59 9.48, -0.66 8.08 C-0.73 6.68, 0.26 4.16, 1.99 3.03 C3.73 1.9, 8.87 2.01, 9.76 1.31 C10.64 0.62, 7.53 -0.93, 7.32 -1.14" stroke="#000000" stroke-width="1" fill="none"></path></g><g stroke-linecap="round" transform="translate(670.3985389830575 890.3690139528301) rotate(0 32.5 30)"><path d="M-1.85 -1.06 C12.87 0.77, 25.68 -0.55, 66.9 -0.41 M0.1 0.52 C14.18 0.53, 28.09 0.63, 64.89 -0.11 M64.33 -0.43 C64.96 20.72, 65.35 42.44, 64.76 58.01 M65.28 -0.57 C65.03 24.16, 65.2 47.73, 65.41 60.32 M64.11 61.67 C42.89 60.92, 23.92 61.66, -1.48 58.2 M65.36 60.02 C45.51 60.37, 27.2 59.13, 0.86 60.57 M0.88 61.23 C-1.01 44.16, -0.85 29.61, -0.26 0.37 M0.28 59.73 C-0.06 43.75, -0.45 26.04, 0.57 -0.77" stroke="#000000" stroke-width="1" fill="none"></path></g><g stroke-linecap="round" transform="translate(759.8666006421287 892.1676013280478) rotate(0 32.5 30)"><path d="M-1.06 -0.78 C20.07 -1.01, 38.47 2.5, 64.59 -1.68 M0.52 0.16 C16.56 -0.03, 32.78 -0.17, 64.89 0.58 M64.57 0.42 C63.95 14.18, 64.17 26.51, 63.01 61.95 M64.43 0.33 C65.49 15.52, 65.21 30.44, 65.32 60.3 M66.67 59.34 C45.05 61.52, 24.93 58.23, -1.8 59.92 M65.02 59.76 C48.89 60.93, 31.19 61.1, 0.57 59.59 M1.23 59.51 C-0.14 36.49, 0.87 13.39, 0.37 -0.34 M-0.27 59.62 C0.72 44.47, 0 31.05, -0.77 0.67" stroke="#000000" stroke-width="1" fill="none"></path></g><g transform="translate(675.3985389830575 895.3690139528301) rotate(0 27.5 25)"><text x="27.5" y="18" font-family="Virgil, Segoe UI Emoji" font-size="20px" fill="#000000" text-anchor="middle" style="white-space: pre;" direction="ltr">CPU </text><text x="27.5" y="43" font-family="Virgil, Segoe UI Emoji" font-size="20px" fill="#000000" text-anchor="middle" style="white-space: pre;" direction="ltr">#55</text></g><g transform="translate(764.8666006421287 897.1676013280478) rotate(0 27.5 25)"><text x="27.5" y="18" font-family="Virgil, Segoe UI Emoji" font-size="20px" fill="#000000" text-anchor="middle" style="white-space: pre;" direction="ltr">CPU </text><text x="27.5" y="43" font-family="Virgil, Segoe UI Emoji" font-size="20px" fill="#000000" text-anchor="middle" style="white-space: pre;" direction="ltr">#111</text></g><g stroke-linecap="round" transform="translate(305.26094709123896 906.0833880712114) rotate(0 11.224331325954836 8.34491305881079)"><path d="M7.67 -0.27 C9.68 -0.74, 13.64 0.05, 16.03 0.95 C18.42 1.84, 20.93 3.49, 22 5.11 C23.07 6.74, 23.12 9.01, 22.46 10.68 C21.8 12.36, 20.14 14.07, 18.05 15.16 C15.97 16.25, 12.55 17.47, 9.94 17.23 C7.33 16.99, 4.08 15.12, 2.38 13.7 C0.67 12.28, -0.31 10.48, -0.31 8.71 C-0.31 6.93, 0.72 4.52, 2.36 3.04 C4 1.57, 8.33 0.49, 9.55 -0.14 C10.77 -0.78, 9.56 -0.86, 9.69 -0.76 M13.49 0.56 C15.83 0.87, 18.87 1.55, 20.46 2.91 C22.06 4.26, 23.07 6.86, 23.06 8.69 C23.04 10.53, 22 12.73, 20.38 13.92 C18.77 15.12, 15.59 15.67, 13.36 15.87 C11.13 16.07, 9.01 15.67, 7.02 15.14 C5.03 14.6, 2.28 14.45, 1.42 12.68 C0.56 10.91, 1.41 6.43, 1.86 4.5 C2.31 2.58, 2.37 1.84, 4.11 1.13 C5.85 0.41, 10.73 0.33, 12.3 0.19 C13.86 0.06, 13.48 0.1, 13.51 0.3" stroke="#000000" stroke-width="1" fill="none"></path></g><g stroke-linecap="round" transform="translate(340.131349109468 903.5145539783296) rotate(0 14.139506022135492 11.432139078776117)"><path d="M20.07 1.14 C22.76 2.3, 25.98 5.16, 27.27 7.52 C28.56 9.87, 28.71 12.9, 27.81 15.25 C26.9 17.6, 24.43 20.36, 21.84 21.59 C19.25 22.83, 15.19 23.19, 12.27 22.67 C9.36 22.14, 6.47 20.27, 4.36 18.44 C2.24 16.6, -0.13 13.95, -0.42 11.66 C-0.7 9.38, 0.82 6.57, 2.65 4.74 C4.49 2.91, 7.52 1.23, 10.6 0.69 C13.68 0.15, 19.39 1.09, 21.13 1.51 C22.88 1.93, 21.21 2.97, 21.06 3.21 M16.54 0.86 C19.56 1.06, 22.63 2.61, 24.66 4.38 C26.69 6.15, 28.59 9.12, 28.75 11.47 C28.9 13.82, 27.66 16.41, 25.61 18.47 C23.55 20.54, 19.53 23.24, 16.43 23.87 C13.33 24.49, 9.36 23.36, 7.02 22.21 C4.68 21.07, 3.63 19.58, 2.39 16.97 C1.15 14.36, -1.12 9.22, -0.42 6.57 C0.27 3.91, 3.81 2.03, 6.57 1.04 C9.34 0.05, 14.59 0.83, 16.18 0.65 C17.76 0.47, 16.05 -0.3, 16.08 -0.03" stroke="#000000" stroke-width="1" fill="none"></path></g><g stroke-linecap="round" transform="translate(385.6327868264819 908.8613014826699) rotate(0 9.795769585503535 7.05108642578125)"><path d="M8.66 0.14 C10.86 0.01, 13.97 0.53, 15.8 1.37 C17.64 2.2, 19.08 3.74, 19.66 5.15 C20.24 6.56, 20.25 8.35, 19.3 9.82 C18.35 11.29, 16.08 13.37, 13.97 13.98 C11.87 14.58, 8.72 13.95, 6.65 13.45 C4.57 12.95, 2.6 12.19, 1.53 10.97 C0.46 9.76, -0.04 7.68, 0.24 6.16 C0.51 4.64, 1.45 3.05, 3.16 1.86 C4.88 0.67, 8.81 -0.64, 10.51 -0.97 C12.22 -1.3, 13.32 -0.43, 13.37 -0.1 M7.78 0.31 C9.68 -0.17, 12.45 0.41, 14.32 1.06 C16.19 1.72, 18.18 3.06, 19.02 4.23 C19.85 5.39, 19.69 6.7, 19.33 8.04 C18.97 9.37, 18.44 10.99, 16.87 12.23 C15.29 13.46, 11.96 15.64, 9.87 15.45 C7.77 15.25, 6.14 12.33, 4.28 11.05 C2.42 9.77, -0.73 9.08, -1.29 7.78 C-1.84 6.48, -0.55 4.48, 0.93 3.24 C2.41 2, 6.6 0.71, 7.57 0.32 C8.53 -0.07, 6.59 1.05, 6.72 0.93" stroke="#000000" stroke-width="1" fill="none"></path></g><g stroke-linecap="round" transform="translate(470.9928264315168 909.412245493086) rotate(0 11.224331325954836 8.34491305881079)"><path d="M6.74 1.25 C8.88 0.55, 12.15 0.27, 14.45 0.77 C16.76 1.26, 19.25 2.83, 20.55 4.22 C21.86 5.61, 22.44 7.53, 22.28 9.09 C22.13 10.65, 21.4 12.36, 19.62 13.56 C17.84 14.77, 14.13 16.04, 11.6 16.33 C9.06 16.62, 6.37 16.24, 4.43 15.32 C2.49 14.39, 0.55 12.58, -0.05 10.79 C-0.65 9, -0.39 6.17, 0.84 4.59 C2.06 3, 5.85 1.94, 7.3 1.26 C8.75 0.59, 9.3 0.66, 9.56 0.53 M13.07 0.72 C15.36 0.84, 18.6 2.1, 20.22 3.36 C21.83 4.62, 22.93 6.34, 22.76 8.26 C22.6 10.19, 20.9 13.4, 19.24 14.89 C17.58 16.38, 14.83 16.9, 12.8 17.23 C10.77 17.56, 9.28 18.07, 7.08 16.86 C4.88 15.64, 0.7 11.94, -0.39 9.94 C-1.47 7.94, -0.42 6.25, 0.58 4.88 C1.57 3.5, 3.5 2.56, 5.59 1.71 C7.67 0.85, 11.76 -0.19, 13.08 -0.25 C14.4 -0.32, 13.78 0.9, 13.51 1.31" stroke="#000000" stroke-width="1" fill="none"></path></g><g stroke-linecap="round" transform="translate(505.8632284497458 906.8434114002041) rotate(0 14.139506022135492 11.432139078776117)"><path d="M11.02 0.55 C13.84 -0.21, 17.82 0.12, 20.57 1.11 C23.32 2.1, 26.33 4.19, 27.52 6.5 C28.7 8.82, 28.69 12.68, 27.69 14.99 C26.68 17.3, 23.99 19.1, 21.47 20.37 C18.95 21.64, 15.41 22.81, 12.56 22.6 C9.7 22.39, 6.36 20.86, 4.34 19.12 C2.33 17.37, 0.77 14.67, 0.46 12.13 C0.14 9.59, 0.5 5.93, 2.45 3.87 C4.4 1.81, 10.52 0.29, 12.15 -0.24 C13.78 -0.78, 12.44 0.33, 12.23 0.65 M16.87 0.61 C19.69 0.86, 23.3 2.54, 25.2 4.19 C27.1 5.84, 28.08 8.18, 28.29 10.49 C28.5 12.81, 28.22 15.82, 26.44 18.07 C24.66 20.32, 20.58 23.62, 17.61 24 C14.63 24.38, 11.6 21.77, 8.6 20.36 C5.61 18.95, 1.05 17.62, -0.38 15.54 C-1.8 13.46, -1.25 10.17, 0.04 7.87 C1.32 5.56, 4.68 2.91, 7.32 1.7 C9.97 0.5, 14.24 1.09, 15.9 0.63 C17.55 0.18, 17.02 -1.26, 17.26 -1.01" stroke="#000000" stroke-width="1" fill="none"></path></g><g stroke-linecap="round" transform="translate(551.3646661667597 912.1901589045449) rotate(0 9.795769585503535 7.05108642578125)"><path d="M9.36 0.46 C11.34 0.29, 14.02 1.14, 15.66 1.94 C17.31 2.75, 18.63 4.06, 19.21 5.3 C19.79 6.55, 20.14 8.12, 19.14 9.43 C18.15 10.74, 15.32 12.42, 13.26 13.18 C11.2 13.95, 8.79 14.33, 6.79 14.02 C4.78 13.72, 2.4 12.66, 1.23 11.34 C0.06 10.03, -0.36 7.53, -0.22 6.13 C-0.08 4.72, 0.47 3.88, 2.06 2.91 C3.65 1.94, 7.89 0.87, 9.34 0.32 C10.78 -0.24, 10.58 -0.53, 10.72 -0.42 M12.7 0.67 C14.72 0.84, 17.04 1.6, 18.07 2.96 C19.1 4.32, 19.19 7.23, 18.9 8.84 C18.6 10.46, 17.43 11.59, 16.3 12.66 C15.17 13.74, 14.3 15.5, 12.11 15.31 C9.92 15.12, 5.12 12.7, 3.15 11.52 C1.19 10.35, 0.67 9.39, 0.3 8.25 C-0.06 7.11, 0.08 6, 0.96 4.68 C1.84 3.36, 3.63 0.9, 5.59 0.33 C7.55 -0.24, 11.86 1.04, 12.73 1.26 C13.6 1.48, 10.79 1.81, 10.81 1.65" stroke="#000000" stroke-width="1" fill="none"></path></g><g stroke-linecap="round"><g transform="translate(188.78604465060738 303.5795220269106) rotate(0 87.45043772018411 -47.52428049358855)"><path d="M-0.83 -1.09 C28.12 -17.05, 144.29 -80.41, 173.49 -96 M0.93 0.96 C30.28 -14.8, 146.96 -78.36, 175.73 -94.59" stroke="#000000" stroke-width="1" fill="none"></path></g><g transform="translate(188.78604465060738 303.5795220269106) rotate(0 87.45043772018411 -47.52428049358855)"><path d="M154.21 -73.45 C161.24 -78.24, 169.07 -86.59, 175.91 -93.38 M155.33 -71.79 C159.98 -77.74, 165.34 -82.4, 176.11 -93.7" stroke="#000000" stroke-width="1" fill="none"></path></g><g transform="translate(188.78604465060738 303.5795220269106) rotate(0 87.45043772018411 -47.52428049358855)"><path d="M144.28 -91.41 C154.09 -91.06, 164.71 -94.35, 175.91 -93.38 M145.4 -89.75 C152.52 -91.43, 160.27 -91.78, 176.11 -93.7" stroke="#000000" stroke-width="1" fill="none"></path></g></g><g transform="translate(10 318.12152777777874) rotate(0 142 25)"><text x="0" y="18" font-family="Virgil, Segoe UI Emoji" font-size="20px" fill="#000000" text-anchor="start" style="white-space: pre;" direction="ltr">CPU #0 and CPU #56</text><text x="0" y="43" font-family="Virgil, Segoe UI Emoji" font-size="20px" fill="#000000" text-anchor="start" style="white-space: pre;" direction="ltr"> are the same physical core!</text></g><g stroke-linecap="round"><g transform="translate(612.9061259920628 692.1792302207348) rotate(0 -0.3366914576975262 0.30086415584162296)"><path d="M-1.15 -0.79 C-1.44 -0.87, -1.42 -0.71, -1.48 -0.54 M0.44 1.41 C0.52 1.5, 0.73 0.67, 0.81 0.71" stroke="#000000" stroke-width="1" fill="none"></path></g></g><g stroke-linecap="round" transform="translate(937.5229947529135 579.6328435019846) rotate(0 296.2726169162327 238.3870297386535)"><path d="M-0.15 -0.45 C119.6 -0.48, 240.12 -0.61, 592.56 -0.78 M0.33 0.37 C169.65 0.58, 339.23 0.57, 592.94 -0.04 M592.42 -0.71 C593.75 131.72, 595.24 262.6, 593.11 477.57 M592.51 0.36 C590.94 178.33, 590.64 357.28, 592.72 476.81 M591.98 476.25 C369.78 475.72, 147.26 475.45, 0.69 477.15 M592.61 476.79 C455.08 477.86, 317.17 477.88, 0.34 477.01 M0.64 477.53 C-2.54 287.68, -0.85 97.68, 0.17 0.72 M0.21 476.78 C-0.65 341.13, -0.85 205.33, 0.29 0.3" stroke="#000000" stroke-width="1" fill="none"></path></g><g transform="translate(955.8212667798231 596.2374306330607) rotate(0 66.5 12.5)"><text x="0" y="18" font-family="Virgil, Segoe UI Emoji" font-size="20px" fill="#000000" text-anchor="start" style="white-space: pre;" direction="ltr">NUMA node 0</text></g><g stroke-linecap="round" transform="translate(961.3919793991807 653.929108150422) rotate(0 32.5 30)"><path d="M-1.25 0.64 C21.32 0.7, 43.1 -1.58, 64.72 0.78 M0.48 0.89 C19.67 0.26, 38.76 -0.71, 64.75 0.96 M63.17 1.26 C66.49 16.97, 66.19 34.48, 66.49 58.07 M65.95 -0.63 C65.23 15.57, 65.34 30.91, 65.75 60.94 M63.83 61.16 C47.97 60.08, 36.07 60.52, -1.35 61.74 M65.8 59.06 C41.97 59.14, 18.81 60.63, 0.98 60.81 M-1.94 61.1 C1.47 41.95, -0.05 25.27, -0.31 0.52 M-0.23 59.74 C-0.97 39.54, 0.37 21.56, 0.37 0.86" stroke="#000000" stroke-width="1" fill="none"></path></g><g transform="translate(966.3919793991807 658.929108150422) rotate(0 27.5 25)"><text x="27.5" y="18" font-family="Virgil, Segoe UI Emoji" font-size="20px" fill="#000000" text-anchor="middle" style="white-space: pre;" direction="ltr">CPU </text><text x="27.5" y="43" font-family="Virgil, Segoe UI Emoji" font-size="20px" fill="#000000" text-anchor="middle" style="white-space: pre;" direction="ltr">#28</text></g><g stroke-linecap="round" transform="translate(1152.7170780726833 658.5552932497053) rotate(0 32.5 30)"><path d="M0.04 -1.95 C21.29 0.68, 42.96 1.53, 66.86 0.96 M1 -0.11 C25.05 0.4, 50.32 -0.7, 64.19 -0.91 M66.28 1.81 C66.97 19.85, 64.61 43.42, 66.64 61.91 M65.39 0.08 C65.92 15.15, 64.52 27.72, 64.34 59.42 M66.73 60.95 C40.39 61.9, 19.72 60.5, 0.1 61.6 M65.85 60.6 C52.61 60.22, 38.3 60.15, 0.86 59.03 M0.39 61.65 C-0.89 39.22, -0.05 18.33, 0.02 -0.45 M0.65 60.69 C0.78 44.41, 0.06 26.83, 0.87 0" stroke="#000000" stroke-width="1" fill="none"></path></g><g transform="translate(1157.7170780726833 663.5552932497053) rotate(0 27.5 25)"><text x="27.5" y="18" font-family="Virgil, Segoe UI Emoji" font-size="20px" fill="#000000" text-anchor="middle" style="white-space: pre;" direction="ltr">CPU </text><text x="27.5" y="43" font-family="Virgil, Segoe UI Emoji" font-size="20px" fill="#000000" text-anchor="middle" style="white-space: pre;" direction="ltr">#29</text></g><g stroke-linecap="round" transform="translate(1343.2818651956215 684.6234169611857) rotate(0 11.224331325954893 8.34491305881079)"><path d="M16.57 1.48 C18.72 2.14, 21.21 4.18, 22.12 5.61 C23.03 7.03, 22.57 8.5, 22.03 10.03 C21.49 11.56, 20.81 13.79, 18.88 14.77 C16.94 15.74, 13.13 15.82, 10.41 15.87 C7.7 15.91, 4.19 16.08, 2.6 15.04 C1.01 14, 0.88 11.35, 0.86 9.62 C0.85 7.89, 1.18 6.36, 2.49 4.65 C3.81 2.95, 6.39 -0.04, 8.76 -0.62 C11.13 -1.2, 14.99 0.57, 16.72 1.18 C18.46 1.8, 19.3 2.89, 19.17 3.07 M13.21 1.43 C15.24 1.26, 16.75 0.46, 18.12 1.33 C19.48 2.2, 20.87 4.91, 21.41 6.65 C21.95 8.4, 22.49 9.95, 21.35 11.79 C20.22 13.62, 16.96 17.15, 14.62 17.68 C12.28 18.2, 9.33 15.73, 7.3 14.93 C5.26 14.13, 3.52 14.31, 2.4 12.88 C1.29 11.45, 0.02 8.47, 0.6 6.35 C1.19 4.22, 3.86 1.42, 5.89 0.14 C7.93 -1.13, 11.58 -1.48, 12.82 -1.32 C14.07 -1.16, 13.24 0.53, 13.35 1.09" stroke="#000000" stroke-width="1" fill="none"></path></g><g stroke-linecap="round" transform="translate(1378.1522672138503 682.0545828683039) rotate(0 14.139506022135492 11.432139078776117)"><path d="M21.26 2.07 C24 2.81, 27.08 4.51, 28.11 6.78 C29.14 9.04, 28.52 13.31, 27.44 15.65 C26.37 17.99, 24.27 19.79, 21.65 20.83 C19.03 21.87, 14.57 22, 11.71 21.88 C8.85 21.75, 6.4 21.6, 4.5 20.08 C2.61 18.56, 0.48 15.21, 0.34 12.76 C0.21 10.3, 2.1 7.51, 3.69 5.37 C5.28 3.22, 6.68 0.22, 9.89 -0.12 C13.1 -0.45, 20.28 2.71, 22.95 3.36 C25.62 4.01, 26 3.76, 25.91 3.8 M18.29 -0.75 C20.95 -0.79, 22.58 1.07, 24.1 3.28 C25.62 5.49, 27.5 9.86, 27.4 12.53 C27.3 15.21, 25.14 17.52, 23.51 19.33 C21.88 21.15, 20.56 22.91, 17.61 23.44 C14.66 23.97, 8.46 23.86, 5.81 22.52 C3.16 21.17, 2.48 17.71, 1.68 15.37 C0.89 13.04, 0.33 10.71, 1.03 8.51 C1.73 6.3, 3.49 3.32, 5.9 2.15 C8.32 0.99, 13.56 1.54, 15.53 1.49 C17.5 1.45, 17.35 1.92, 17.73 1.91" stroke="#000000" stroke-width="1" fill="none"></path></g><g stroke-linecap="round" transform="translate(1423.6537049308645 687.4013303726438) rotate(0 9.795769585503535 7.05108642578125)"><path d="M12.98 1.2 C14.78 1.28, 16.32 1.62, 17.58 2.63 C18.84 3.64, 20.67 5.82, 20.53 7.23 C20.39 8.65, 18.49 9.87, 16.73 11.12 C14.97 12.36, 11.88 14.34, 9.95 14.69 C8.02 15.04, 6.63 14.02, 5.15 13.23 C3.66 12.44, 1.63 11.59, 1.03 9.93 C0.44 8.27, 0.91 4.79, 1.57 3.25 C2.24 1.7, 2.66 0.85, 5.03 0.65 C7.4 0.45, 13.89 1.65, 15.81 2.03 C17.73 2.4, 16.75 2.91, 16.55 2.91 M9.23 -1.05 C10.88 -1.46, 13.56 -0.02, 15.41 0.96 C17.27 1.94, 19.87 2.98, 20.37 4.84 C20.88 6.7, 19.6 10.8, 18.45 12.12 C17.3 13.44, 15.32 12.36, 13.48 12.76 C11.63 13.15, 9.39 14.89, 7.37 14.5 C5.36 14.11, 2.36 12.13, 1.37 10.4 C0.38 8.67, 0.9 5.84, 1.43 4.13 C1.96 2.41, 2.87 0.66, 4.55 0.12 C6.22 -0.41, 10.29 0.7, 11.48 0.91 C12.66 1.11, 11.87 1.21, 11.65 1.36" stroke="#000000" stroke-width="1" fill="none"></path></g><g stroke-linecap="round" transform="translate(1337.0416223435166 896.7973790244444) rotate(0 32.50000000000006 30)"><path d="M0.96 1.78 C20.47 1.11, 39.76 -0.82, 64.5 1.92 M-0.91 0.63 C18.49 0.84, 36.04 1.43, 65.75 -0.97 M66.91 -1.26 C65.5 15.72, 65.73 30.99, 66.5 61.88 M64.42 0.58 C63.73 14.4, 65.44 28.77, 64.33 60.87 M66.6 58.11 C42.46 58.24, 19.66 61.24, 1.95 61.61 M64.03 60.55 C46.25 60.63, 25.78 61.38, -0.16 60.26 M-0.45 59.48 C-1.66 38.66, 1.02 22.25, 0.74 1.72 M0 59.22 C1.14 43.36, -0.49 28.73, -0.84 0.14" stroke="#000000" stroke-width="1" fill="none"></path></g><g transform="translate(1342.0416223435166 901.7973790244444) rotate(0 27.500000000000057 25)"><text x="27.5" y="18" font-family="Virgil, Segoe UI Emoji" font-size="20px" fill="#000000" text-anchor="middle" style="white-space: pre;" direction="ltr">CPU </text><text x="27.5" y="43" font-family="Virgil, Segoe UI Emoji" font-size="20px" fill="#000000" text-anchor="middle" style="white-space: pre;" direction="ltr">#55</text></g><g stroke-linecap="round" transform="translate(971.9040304516981 912.5117531428261) rotate(0 11.224331325954836 8.34491305881079)"><path d="M10.33 -0.13 C12.51 -0.64, 15.07 -0.48, 17.15 0.75 C19.22 1.98, 22.05 5.24, 22.79 7.24 C23.52 9.24, 22.6 11.16, 21.55 12.75 C20.51 14.34, 18.97 16.24, 16.54 16.76 C14.12 17.29, 9.47 16.41, 7.01 15.9 C4.54 15.39, 2.74 15.26, 1.75 13.73 C0.75 12.2, 0.69 8.61, 1.03 6.72 C1.38 4.83, 1.54 3.46, 3.82 2.41 C6.1 1.36, 12.29 0.37, 14.7 0.4 C17.12 0.43, 18.53 2.59, 18.3 2.59 M6.34 0.82 C8.82 0.15, 14.3 0.47, 16.59 1.28 C18.87 2.08, 18.96 4.14, 20.05 5.63 C21.15 7.12, 23.45 8.49, 23.16 10.22 C22.87 11.96, 20.59 14.85, 18.33 16.05 C16.06 17.25, 12.21 17.45, 9.57 17.43 C6.93 17.4, 3.9 16.96, 2.48 15.9 C1.06 14.84, 0.97 13.05, 1.03 11.08 C1.09 9.11, 1.56 5.62, 2.84 4.07 C4.12 2.51, 8.14 2.17, 8.71 1.73 C9.27 1.29, 6.12 1.49, 6.23 1.43" stroke="#000000" stroke-width="1" fill="none"></path></g><g stroke-linecap="round" transform="translate(1006.7744324699271 909.9429190499443) rotate(0 14.139506022135492 11.432139078776117)"><path d="M12.24 -0.72 C14.76 -1, 18.2 0.94, 20.9 2.46 C23.6 3.98, 27.29 5.99, 28.44 8.38 C29.59 10.77, 28.99 14.73, 27.81 16.78 C26.62 18.82, 24.21 19.69, 21.33 20.64 C18.46 21.59, 13.5 22.72, 10.56 22.5 C7.62 22.27, 5.55 21.18, 3.69 19.29 C1.82 17.39, -0.65 13.68, -0.61 11.14 C-0.57 8.59, 1.34 5.77, 3.93 4.04 C6.52 2.32, 12.56 1.46, 14.93 0.77 C17.3 0.07, 18.31 -0.09, 18.17 -0.13 M10.44 1.78 C13.12 1.01, 17.49 -0.99, 20.43 -0.08 C23.37 0.82, 26.78 4.85, 28.07 7.21 C29.36 9.58, 28.87 12.13, 28.15 14.13 C27.44 16.12, 26.15 17.95, 23.8 19.18 C21.46 20.4, 17.09 21.25, 14.08 21.5 C11.06 21.75, 7.82 21.91, 5.73 20.66 C3.65 19.41, 2.12 16.39, 1.56 13.99 C1 11.59, 0.73 8.75, 2.36 6.26 C3.99 3.76, 9.91 -0.28, 11.35 -0.97 C12.78 -1.65, 11.1 1.66, 10.97 2.13" stroke="#000000" stroke-width="1" fill="none"></path></g><g stroke-linecap="round" transform="translate(1052.2758701869411 915.2896665542842) rotate(0 9.795769585503535 7.05108642578125)"><path d="M13.51 -0.12 C15.48 0.62, 18.48 3.49, 19.48 5.14 C20.47 6.8, 20.04 8.38, 19.45 9.81 C18.87 11.24, 17.95 13.11, 15.96 13.74 C13.98 14.38, 9.8 13.8, 7.55 13.61 C5.31 13.43, 3.6 13.78, 2.5 12.64 C1.4 11.49, 1 8.35, 0.96 6.73 C0.93 5.11, 1.11 3.99, 2.3 2.91 C3.48 1.83, 5.78 0.38, 8.06 0.25 C10.34 0.12, 14.78 1.99, 15.99 2.13 C17.2 2.26, 15.65 1.21, 15.32 1.05 M13.89 1 C15.88 1.48, 15.86 3.29, 16.96 4.47 C18.05 5.65, 20.51 6.63, 20.46 8.11 C20.4 9.59, 18.52 12.25, 16.61 13.37 C14.69 14.49, 11.3 14.72, 8.97 14.83 C6.63 14.93, 3.91 14.77, 2.61 13.99 C1.31 13.21, 1.23 11.83, 1.17 10.15 C1.11 8.48, 1.28 5.33, 2.25 3.94 C3.22 2.56, 5.51 2.34, 6.99 1.87 C8.48 1.4, 9.98 1.34, 11.14 1.12 C12.3 0.9, 13.72 0.35, 13.96 0.54" stroke="#000000" stroke-width="1" fill="none"></path></g><g stroke-linecap="round" transform="translate(1137.6359097919758 915.8406105647011) rotate(0 11.224331325954836 8.34491305881079)"><path d="M8.76 0.71 C11.16 0.56, 15.68 0.59, 17.97 1.59 C20.27 2.58, 21.81 5.19, 22.54 6.68 C23.28 8.16, 23.45 9.02, 22.37 10.51 C21.29 12.01, 18.16 14.48, 16.05 15.64 C13.94 16.8, 12.08 17.77, 9.7 17.46 C7.31 17.14, 3.33 15.25, 1.74 13.75 C0.15 12.25, -0.04 10.14, 0.16 8.43 C0.37 6.73, 0.83 5.01, 2.97 3.51 C5.12 2, 11.23 -0.01, 13.02 -0.62 C14.8 -1.23, 13.94 -0.49, 13.67 -0.15 M7.31 -0.27 C9.49 -1.13, 13.32 0.57, 15.56 1.24 C17.8 1.9, 19.41 2.63, 20.75 3.71 C22.08 4.8, 23.75 6.21, 23.59 7.75 C23.44 9.3, 21.51 11.33, 19.81 12.97 C18.1 14.61, 15.63 17.01, 13.35 17.57 C11.07 18.13, 8.3 17.35, 6.14 16.33 C3.98 15.32, 1.02 13.68, 0.4 11.5 C-0.23 9.33, 1.22 4.83, 2.39 3.28 C3.56 1.72, 6.69 2.52, 7.43 2.17 C8.16 1.82, 6.65 1.34, 6.8 1.19" stroke="#000000" stroke-width="1" fill="none"></path></g><g stroke-linecap="round" transform="translate(1172.5063118102048 913.2717764718184) rotate(0 14.139506022135492 11.432139078776117)"><path d="M13.75 0.82 C16.79 0.77, 20.23 1.38, 22.73 2.8 C25.24 4.23, 28.23 7.19, 28.75 9.38 C29.28 11.58, 27.38 13.77, 25.9 15.98 C24.41 18.2, 22.29 21.71, 19.85 22.68 C17.4 23.65, 14.09 22.58, 11.23 21.8 C8.38 21.02, 4.51 19.91, 2.71 18 C0.92 16.1, 0.08 12.66, 0.46 10.35 C0.85 8.04, 2.69 6.01, 5.04 4.17 C7.39 2.33, 12.63 0.04, 14.55 -0.67 C16.46 -1.38, 16.34 -0.25, 16.53 -0.08 M14.9 1.39 C17.71 1.46, 23.2 2.14, 25.44 3.92 C27.68 5.7, 28.58 9.55, 28.34 12.07 C28.1 14.6, 26.06 17.12, 23.99 19.08 C21.92 21.04, 18.5 23.19, 15.93 23.86 C13.36 24.52, 10.85 24.39, 8.58 23.07 C6.31 21.74, 3.46 18.2, 2.32 15.91 C1.17 13.62, 1.27 11.55, 1.72 9.34 C2.17 7.13, 2.42 4.17, 5.03 2.65 C7.63 1.13, 15.48 0.38, 17.34 0.2 C19.2 0.02, 16.47 1.32, 16.17 1.55" stroke="#000000" stroke-width="1" fill="none"></path></g><g stroke-linecap="round" transform="translate(1218.007749527219 918.6185239761592) rotate(0 9.795769585503535 7.05108642578125)"><path d="M6.73 0.89 C8.77 0.28, 11.27 0.98, 13.27 1.2 C15.27 1.43, 17.77 1.12, 18.74 2.22 C19.71 3.33, 19.33 5.99, 19.09 7.81 C18.85 9.63, 18.88 12.05, 17.32 13.15 C15.76 14.24, 11.92 14.38, 9.71 14.37 C7.5 14.36, 5.64 13.91, 4.08 13.09 C2.52 12.26, 0.69 11.05, 0.34 9.41 C-0.01 7.77, 1.01 4.86, 1.99 3.23 C2.98 1.6, 5.35 0.04, 6.27 -0.36 C7.18 -0.75, 7.46 0.57, 7.49 0.83 M15.2 1.58 C16.99 2.28, 18.03 3.14, 18.91 4.12 C19.79 5.1, 20.92 6.21, 20.47 7.43 C20.02 8.66, 17.89 10.21, 16.19 11.47 C14.48 12.72, 12.23 14.68, 10.26 14.98 C8.29 15.28, 6.06 14.3, 4.36 13.27 C2.67 12.24, 0.31 10.73, 0.09 8.79 C-0.13 6.84, 1.71 2.76, 3.03 1.58 C4.36 0.39, 6.22 1.78, 8.05 1.68 C9.88 1.57, 12.84 1.13, 14.01 0.94 C15.17 0.75, 15.08 0.42, 15.05 0.54" stroke="#000000" stroke-width="1" fill="none"></path></g><g stroke-linecap="round" transform="translate(434.66482011098594 995.9042106507329) rotate(0 133.54452950613836 26.141640799386096)"><path d="M-0.61 -0.07 C95.15 -1.98, 194.49 -0.87, 267.91 1.54 M0.64 0.45 C66.02 -0.33, 133.33 0.23, 266.89 0.43 M266.47 1.12 C268.83 16.75, 269.05 30.82, 268.61 50.88 M266.4 0.46 C267.4 13.12, 266.1 27.24, 266.11 52.69 M267.99 52.43 C181.32 49.43, 99.07 50.32, 0.78 52.55 M266.82 52.17 C197.44 54.36, 127.42 53.74, 0.75 51.71 M0.71 53.67 C-0.98 37.83, 0.76 24.79, 1.76 -0.01 M-0.84 52.39 C0.24 33.94, -0.1 16.79, -0.8 -0.23" stroke="#000000" stroke-width="1" fill="none"></path></g><g stroke-linecap="round" transform="translate(435.97459096757086 470.30312335302165) rotate(0 133.54452950613836 26.141640799386096)"><path d="M-0.07 1.02 C71.84 -0.79, 143.53 -2.1, 267.18 0 M0.09 -0.21 C88.19 -1.02, 175.53 -1.58, 267.77 -0.04 M266.43 1.95 C269.1 17.18, 268.22 28.93, 266.52 53.33 M267.31 0.35 C267 16.55, 266.74 33.75, 267.06 52.3 M265.59 51.87 C202.99 52.88, 141.23 53.54, 1.35 53.14 M267.33 51.67 C177.83 52.85, 86.79 52.05, -0.07 52.44 M-1.69 52.63 C-1.49 31.29, 0.35 10.3, 0.44 1.86 M0.35 52.18 C0.61 35.62, 0.56 21.8, 0.44 -0.03" stroke="#000000" stroke-width="1" fill="none"></path></g><g stroke-linecap="round" transform="translate(1103.741750565785 466.5420498318156) rotate(0 133.54452950613836 26.141640799386096)"><path d="M0.28 -0.96 C93.26 2.27, 186.53 2.13, 268.55 0.01 M-0.08 0.33 C69.92 -0.43, 142.08 -0.38, 267.07 -0.63 M268.44 1.82 C267.14 12.63, 267.92 25.89, 266.25 52.12 M266.9 0.99 C266.14 13.43, 267.41 25.47, 267.92 52.17 M266.57 53.56 C197.91 50.13, 127.92 51.55, 0.51 50.83 M266.65 52.85 C208.51 53.95, 148.51 53.67, -0.47 52.42 M1.04 50.32 C-0.24 36.34, -1.03 21.32, -0.44 -0.28 M-0.6 52.66 C1.15 31.54, 0.26 11.59, 0.61 -0.18" stroke="#000000" stroke-width="1" fill="none"></path></g><g stroke-linecap="round" transform="translate(1103.0782112242669 989.6810879177535) rotate(0 133.54452950613836 26.141640799386096)"><path d="M1.27 0.5 C59.81 0.87, 121.52 1.21, 265.64 -1.23 M0.57 0.79 C104.8 1.32, 209.03 0.69, 267.23 0.04 M265.13 -0.17 C267.09 15.47, 268.01 32.4, 266.81 54.24 M267.46 0.63 C267.08 10.22, 267.92 21.57, 266.91 51.61 M266.9 52.95 C202.23 54.07, 140.32 53.44, -1.36 50.96 M267.28 52.74 C200.49 51.63, 134.45 51.92, 0 52.91 M-1.51 53.84 C1.65 37.67, -1.15 26.52, -1.12 -1.28 M-0.96 51.44 C0.27 33.68, 0.45 14.46, 0.21 -0.28" stroke="#000000" stroke-width="1" fill="none"></path></g><g transform="translate(449.286140562995 487.3461923750633) rotate(0 126 12.5)"><text x="0" y="18" font-family="Virgil, Segoe UI Emoji" font-size="20px" fill="#000000" text-anchor="start" style="white-space: pre;" direction="ltr">Shared Last Level Cache</text></g><g transform="translate(1111.8003704737089 479.38975403800987) rotate(0 126 12.5)"><text x="0" y="18" font-family="Virgil, Segoe UI Emoji" font-size="20px" fill="#000000" text-anchor="start" style="white-space: pre;" direction="ltr">Shared Last Level Cache</text></g><g transform="translate(1116.0119706411197 1001.7140163845495) rotate(0 126 12.5)"><text x="0" y="18" font-family="Virgil, Segoe UI Emoji" font-size="20px" fill="#000000" text-anchor="start" style="white-space: pre;" direction="ltr">Shared Last Level Cache</text></g><g transform="translate(444.857011098709 1013.7747376457107) rotate(0 126 12.5)"><text x="0" y="18" font-family="Virgil, Segoe UI Emoji" font-size="20px" fill="#000000" text-anchor="start" style="white-space: pre;" direction="ltr">Shared Last Level Cache</text></g></svg>