<?xml version="1.0" encoding="UTF-8" standalone="no"?>
<svg
   id="Layer_2"
   viewBox="0 0 51.200001 38.52"
   width="51.200001"
   height="38.52"
   version="1.1"
   sodipodi:docname="ExecuTorch-Logo-cropped.svg"
   inkscape:version="1.2.1 (9c6d41e4, 2022-07-14)"
   xmlns:inkscape="http://www.inkscape.org/namespaces/inkscape"
   xmlns:sodipodi="http://sodipodi.sourceforge.net/DTD/sodipodi-0.dtd"
   xmlns="http://www.w3.org/2000/svg"
   xmlns:svg="http://www.w3.org/2000/svg">
  <sodipodi:namedview
     id="namedview15"
     pagecolor="#ffffff"
     bordercolor="#000000"
     borderopacity="0.25"
     inkscape:showpageshadow="2"
     inkscape:pageopacity="0.0"
     inkscape:pagecheckerboard="0"
     inkscape:deskcolor="#d1d1d1"
     showgrid="false"
     inkscape:zoom="8.0613964"
     inkscape:cx="18.235054"
     inkscape:cy="7.6289512"
     inkscape:window-width="1680"
     inkscape:window-height="819"
     inkscape:window-x="0"
     inkscape:window-y="25"
     inkscape:window-maximized="0"
     inkscape:current-layer="Layer_2" />
  <defs
     id="defs4">
    <style
       id="style2">.cls-1{fill:#cc2faa;}</style>
  </defs>
  <path
     class="cls-1"
     d="m 26.89,12.15 c 1.27,-1.27 3.33,-1.27 4.59,0 1.26,1.27 1.26,3.32 0,4.59 -1.26,1.27 -3.33,1.27 -4.59,0 -1.26,-1.27 -1.26,-3.32 0,-4.59"
     id="path6" />
  <polygon
     class="cls-1"
     points="16.1,27.25 16.11,21.52 39.95,45.19 51.49,45.17 51.53,22.49 55.6,18.42 55.55,49.23 38.27,49.26 "
     id="polygon8"
     transform="translate(-4.4,-10.74)" />
  <polygon
     class="cls-1"
     points="4.4,41.62 4.45,10.77 21.74,10.74 30.38,19.31 27.5,22.19 20.05,14.81 8.52,14.83 8.48,37.55 "
     id="polygon10"
     transform="translate(-4.4,-10.74)" />
  <polygon
     class="cls-1"
     points="39.52,28.41 44.48,33.33 44.47,39.06 36.66,31.31 "
     id="polygon12"
     transform="translate(-4.4,-10.74)" />
</svg>
